<svg id="Layer_1" data-name="Layer 1" xmlns="http://www.w3.org/2000/svg" viewBox="0 0 512 512"><path d="M299.45,403.86H212.57a13.92,13.92,0,0,1,0-27.83h86.88a13.92,13.92,0,0,1,0,27.83Z"/><path d="M299.45,447.43H212.57a13.92,13.92,0,0,1,0-27.83h86.88a13.92,13.92,0,0,1,0,27.83Z"/><path d="M277.83,491H234.19a13.92,13.92,0,0,1,0-27.83h43.64a13.92,13.92,0,0,1,0,27.83Z"/><path d="M297.07,161.07a13.91,13.91,0,0,1-13.91-13.91v-19.9a13.92,13.92,0,1,1,27.83,0v19.9A13.92,13.92,0,0,1,297.07,161.07Z"/><path d="M214.94,161.07A13.91,13.91,0,0,1,201,147.16v-19.9a13.92,13.92,0,1,1,27.83,0v19.9A13.92,13.92,0,0,1,214.94,161.07Z"/><path d="M301,362.06c-20.47,0-39.41-7.45-51.53-21.68-9.53-11.18-27.61-42.8,10-95l4.58-6.36a82.11,82.11,0,0,1-14.71.49,75.73,75.73,0,0,1-53-25.49,13.91,13.91,0,1,1,20.86-18.41,48.13,48.13,0,0,0,33.69,16.12c15.73.88,31.71-5.23,45-17.24a13.91,13.91,0,0,1,21.14,17.68c-.45.72-5.26,8.25-35,49.49-18.39,25.48-22.56,47.59-11.43,60.64,11.5,13.5,37.2,15.69,58.64,5.05a149.15,149.15,0,0,0,75.65-129.66c0-82.1-66.79-148.89-148.89-148.89S107.11,115.62,107.11,197.72a149.85,149.85,0,0,0,84,134.07,13.91,13.91,0,0,1-12.14,25A176.73,176.73,0,0,1,79.28,197.72C79.28,100.28,158.55,21,256,21s176.72,79.28,176.72,176.72A177,177,0,0,1,342.59,351.8l-.57.3A91.85,91.85,0,0,1,301,362.06Z"/></svg>