<svg id="Layer_1" data-name="Layer 1" xmlns="http://www.w3.org/2000/svg" viewBox="0 0 512 512"><defs><style>.cls-1{fill:#231f20;}</style></defs><title>Icon</title><path class="cls-1" d="M84.42041,188.22217a8.99367,8.99367,0,0,0,12.125-3.87012,180.18851,180.18851,0,0,1,26.30908-38.01269,9.00011,9.00011,0,1,0-13.3667-12.05567,198.19386,198.19386,0,0,0-28.9375,41.81348A8.99947,8.99947,0,0,0,84.42041,188.22217Z"/><path class="cls-1" d="M68.10889,250.87988a9.1125,9.1125,0,0,0,1.16845.07569,9.00224,9.00224,0,0,0,8.91407-7.84375,178.74314,178.74314,0,0,1,3.78808-20.0962,9,9,0,0,0-17.46777-4.34472,196.8767,196.8767,0,0,0-4.1709,22.12646A9.00013,9.00013,0,0,0,68.10889,250.87988Z"/><path class="cls-1" d="M273.27246,371.3457a24.425,24.425,0,0,1-34.54492,0A10.00031,10.00031,0,0,0,224.585,385.48828a44.42718,44.42718,0,0,0,62.83008,0,10.00031,10.00031,0,0,0-14.14258-14.14258Z"/><circle class="cls-1" cx="197.45656" cy="336.04277" r="20.97205" transform="translate(-179.78443 238.04752) rotate(-45)"/><circle class="cls-1" cx="314.54344" cy="336.04277" r="20.97209" transform="translate(-68.79238 81.25665) rotate(-13.28251)"/><path class="cls-1" d="M507.67853,307.39264A257.278,257.278,0,0,0,511,266.29785,255,255,0,0,0,75.688,85.98584,253.32881,253.32881,0,0,0,1,266.29785a257.257,257.257,0,0,0,3.32025,41.08472c.0351.29529.08515.58563.13715.87567q1.29785,7.8437,3.06457,15.5777A14.99981,14.99981,0,0,0,18.27246,334.957a840.2638,840.2638,0,0,0,91.807,18.84137A259.11715,259.11715,0,0,1,146.3291,485.70215a15.00012,15.00012,0,0,0,15,15H350.6709a15.00012,15.00012,0,0,0,15-15A259.11822,259.11822,0,0,1,401.92053,353.7984a840.24966,840.24966,0,0,0,91.807-18.84137,14.99884,14.99884,0,0,0,10.751-11.12109c1.19641-5.18659,2.21295-10.42249,3.082-15.68946C507.60345,307.89624,507.64807,307.64673,507.67853,307.39264ZM96.90088,107.19922A225.00025,225.00025,0,0,1,481,266.29785q0,10.29419-.93237,20.52612-22.87243-5.64943-46.81873-10.11364-.68894-.161-1.38574-.256A976.05085,976.05085,0,0,0,256,260.749,976.04724,976.04724,0,0,0,80.151,276.45221q-.71164.09614-1.41424.26123-23.90562,4.45386-46.80426,10.111Q31.0079,276.60627,31,266.29785A223.527,223.527,0,0,1,96.90088,107.19922ZM336.06543,470.70215H175.93506A289.20063,289.20063,0,0,0,111.582,303.6582l-1.50806-1.85186a968.439,968.439,0,0,1,291.85212,0L400.418,303.6582A289.19011,289.19011,0,0,0,336.06543,470.70215Z"/></svg>